<svg width="60" height="60" viewBox="0 0 60 60" fill="none" xmlns="http://www.w3.org/2000/svg">
<path d="M22.5 32.5C20.85 33.325 19.475 34.55 18.45 36.075C17.875 36.95 17.875 38.05 18.45 38.925C19.475 40.45 20.85 41.675 22.5 42.5" stroke="white" stroke-width="1.5" stroke-linecap="round" stroke-linejoin="round"/>
<path d="M38.025 32.5C39.675 33.325 41.05 34.55 42.075 36.075C42.65 36.95 42.65 38.05 42.075 38.925C41.05 40.45 39.675 41.675 38.025 42.5" stroke="white" stroke-width="1.5" stroke-linecap="round" stroke-linejoin="round"/>
<path d="M22.5 55H37.5C50 55 55 50 55 37.5V22.5C55 10 50 5 37.5 5H22.5C10 5 5 10 5 22.5V37.5C5 50 10 55 22.5 55Z" stroke="white" stroke-width="1.5" stroke-linecap="round" stroke-linejoin="round"/>
<path d="M5.575 20.025L53.625 20" stroke="white" stroke-width="1.5" stroke-linecap="round" stroke-linejoin="round"/>
</svg>
