<svg width="60" height="60" viewBox="0 0 60 60" fill="none" xmlns="http://www.w3.org/2000/svg">
<path d="M12.5 37.5V20" stroke="white" stroke-width="1.5" stroke-linecap="round" stroke-linejoin="round"/>
<path d="M13.125 55C17.6123 55 21.25 51.3623 21.25 46.875C21.25 42.3877 17.6123 38.75 13.125 38.75C8.63769 38.75 5 42.3877 5 46.875C5 51.3623 8.63769 55 13.125 55Z" stroke="white" stroke-width="1.5" stroke-linecap="round" stroke-linejoin="round"/>
<path d="M12.5 20C16.6421 20 20 16.6421 20 12.5C20 8.35786 16.6421 5 12.5 5C8.35786 5 5 8.35786 5 12.5C5 16.6421 8.35786 20 12.5 20Z" stroke="white" stroke-width="1.5" stroke-linecap="round" stroke-linejoin="round"/>
<path d="M47.5 20C51.6421 20 55 16.6421 55 12.5C55 8.35786 51.6421 5 47.5 5C43.3579 5 40 8.35786 40 12.5C40 16.6421 43.3579 20 47.5 20Z" stroke="white" stroke-width="1.5" stroke-linecap="round" stroke-linejoin="round"/>
<path d="M12.825 37.5C13.95 33.125 17.95 29.875 22.675 29.9L31.25 29.925C37.8 29.95 43.375 25.75 45.425 19.9" stroke="white" stroke-width="1.5" stroke-linecap="round" stroke-linejoin="round"/>
</svg>
