<svg width="60" height="60" viewBox="0 0 60 60" fill="none" xmlns="http://www.w3.org/2000/svg">
<g clip-path="url(#clip0_145_437)">
<path d="M27.425 5H22.425C9.92499 5 4.92499 10 4.92499 22.5V37.5C4.92499 50 9.92499 55 22.425 55H37.425C49.925 55 54.925 50 54.925 37.5V32.5" stroke="white" stroke-width="1.5" stroke-linecap="round" stroke-linejoin="round"/>
<path d="M54.7 8.9C51.625 16.575 43.9 27.025 37.45 32.2L33.5 35.35C33 35.725 32.5 36.025 31.925 36.25C31.925 35.875 31.9 35.5 31.85 35.1C31.625 33.425 30.875 31.85 29.525 30.525C28.15 29.15 26.5 28.375 24.8 28.15C24.4 28.125 24 28.1 23.6 28.125C23.825 27.5 24.15 26.925 24.575 26.45L27.725 22.5C32.9 16.05 43.375 8.275 51.025 5.2C52.2 4.75 53.35 5.1 54.075 5.825C54.825 6.575 55.175 7.725 54.7 8.9Z" stroke="white" stroke-width="1.5" stroke-linecap="round" stroke-linejoin="round"/>
<path d="M31.95 36.225C31.95 38.425 31.1 40.525 29.525 42.125C28.3 43.35 26.65 44.2 24.675 44.45L19.75 44.975C17.075 45.275 14.775 43 15.075 40.275L15.6 35.35C16.075 30.975 19.725 28.175 23.625 28.1C24.025 28.075 24.425 28.1 24.825 28.125C26.525 28.35 28.175 29.125 29.55 30.5C30.9 31.85 31.65 33.4 31.875 35.075C31.925 35.475 31.95 35.875 31.95 36.225Z" stroke="white" stroke-width="1.5" stroke-linecap="round" stroke-linejoin="round"/>
<path d="M39.55 29.95C39.55 24.725 35.325 20.475 30.075 20.475" stroke="white" stroke-width="1.5" stroke-linecap="round" stroke-linejoin="round"/>
</g>
<defs>
<clipPath id="clip0_145_437">
<rect width="60" height="60" fill="white"/>
</clipPath>
</defs>
</svg>
